<?xml version="1.0" encoding="UTF-8" standalone="no"?>
<svg
   xmlns="http://www.w3.org/2000/svg"
   width="96"
   height="96"
   viewBox="0 0 96 96"
   version="1.1">
  <circle
     style="fill:#9c27b0;fill-opacity:1;stroke:none;stroke-width:2"
     cx="48"
     cy="48"
     r="44" />
  <path
     d="M 62,38 V 62 H 34 V 38 Z m 4,-4 H 30 c -2.2,0 -4,1.8 -4,4 v 28 c 0,2.2 1.8,4 4,4 h 36 c 2.2,0 4,-1.8 4,-4 V 38 c 0,-2.2 -1.8,-4 -4,-4 z"
     style="fill:#ffffff" />
  <path
     d="m 42,50 6,8 4,-6 6,8 H 38 Z"
     style="fill:#ffffff" />
  <path
     d="m 50,28 v 8 h 8 z m 12,0 h -8 c -2.2,0 -4,1.8 -4,4 v 8 c 0,2.2 1.8,4 4,4 h 8 c 2.2,0 4,-1.8 4,-4 v -8 c 0,-2.2 -1.8,-4 -4,-4 z"
     style="fill:#ffffff" />
  <path
     d="m 38,28 v 4 h 4 v -4 z m 0,8 v 4 h 4 v -4 z m -8,-8 v 4 h 4 v -4 z m 0,8 v 4 h 4 v -4 z"
     style="fill:#ffffff" />
</svg>